<mxfile host="app.diagrams.net" modified="2022-01-25T10:57:59.436Z" agent="5.0 (Windows)" etag="qQUwL3eFzXlXun1Cojj0" version="16.4.6" type="github">
  <diagram id="Ryj4_whMZ2nplTR4UUCT" name="第 1 页">
    <mxGraphModel dx="1038" dy="536" grid="1" gridSize="10" guides="1" tooltips="1" connect="1" arrows="1" fold="1" page="1" pageScale="1" pageWidth="1169" pageHeight="1654" math="0" shadow="0">
      <root>
        <mxCell id="0" />
        <mxCell id="1" parent="0" />
      </root>
    </mxGraphModel>
  </diagram>
</mxfile>
